# xmcd
#
# Track frame offsets: 
#        150
#        16992
#        36424
#        53218
#        71610
#        91676
#        107471
#        126084
#        142499
#        156975
#        175277
#        203587
#
# Disc length: 2993 seconds
#
# Revision: 0
# Processed by: cddbd v1.5.2PL0 Copyright (c) Steve Scherf et al.
# Submitted via: ExactAudioCopy v0.99pb4
#
DISCID=a60baf0c
DTITLE=The Dunwells - Blind Sigted Faith
DYEAR=2012
DGENRE=Americana
TTITLE0=I Could Be a King
TTITLE1=Blind Sighted Faith
TTITLE2=Hand That Feeds
TTITLE3=Only Me
TTITLE4=Elizabeth
TTITLE5=Follow the Road
TTITLE6=In The Moment
TTITLE7=Goodnight My City
TTITLE8=I Want to Be
TTITLE9=Perfect Timing
TTITLE10=Oh Lord
TTITLE11=Borrow Me
EXTD=
EXTT0=
EXTT1=
EXTT2=
EXTT3=
EXTT4=
EXTT5=
EXTT6=
EXTT7=
EXTT8=
EXTT9=
EXTT10=
EXTT11=
PLAYORDER=
